<svg xmlns="http://www.w3.org/2000/svg" viewBox="0 0 32 32">
    <!-- Темный фон, чтобы иконка не терялась на светлых темах -->
    <rect width="32" height="32" rx="6" fill="#020202"/>

    <!-- Наш кролик -->
    <g fill="none" stroke="#00ffcc" stroke-width="1.8" stroke-linecap="round" stroke-linejoin="round">
        <path d="M10 13c0-3 1-7 2-8 1 0 1.5 3 1.5 5M22 13c0-3-1-7-2-8-1 0-1.5 3-1.5 5" />
        <path d="M16 10c-2.5 0-5 2-5 5.5s1.5 4.5 5 4.5 5-1 5-4.5S18.5 10 16 10z" />
        <circle cx="13.5" cy="15" r="0.8" fill="#00ffcc" />
        <circle cx="18.5" cy="15" r="0.8" fill="#00ffcc" />
        <path d="M15.5 17.5c.3.2.7.2 1 0" opacity="0.7" />
        <path d="M11 20c-2 1-3 3-3 5M21 20c2 1 3 3 3 5" />
    </g>
</svg>